# xmcd CD database file
#
# Track frame offsets:
#	300
#	18217
#	49353
#	82006
#	99491
#	134419
#	149438
#	186274
#	208739
#
# Disc length: 3084 seconds
#
# Revision: 0
# Processed by: cddbd v1.5.2PL0 Copyright (c) Steve Scherf et al.
# Submitted via: CDex 1.75
#
DISCID=850c0809
DTITLE=The Onus - Y'all Got It: Music From the Wiz
DYEAR=2004
DGENRE=Jazz
TTITLE0=Be a Lion
TTITLE1=He's the Wizard
TTITLE2=Soon as I Get Get Home
TTITLE3=Slide Some Oil To Me
TTITLE4=If You Believe in Yourself
TTITLE5=I Was Born the Day Before Yesterday
TTITLE6=What Would I Do If I Could Feel
TTITLE7=Y'all Got It
TTITLE8=If I Had a Dream
EXTD=YEAR: 2004
EXTT0=
EXTT1=
EXTT2=
EXTT3=
EXTT4=
EXTT5=
EXTT6=
EXTT7=
EXTT8=
PLAYORDER=
